<?xml version="1.0" encoding="UTF-8" standalone="no"?>
<!-- Image Comparison Element Copyright (C) 2016–2021 YOOtheme GmbH, 2020–2021 Thomas Weidlich GNU GPL v3 -->

<svg
   width="20"
   height="20"
   viewBox="0 0 20 20"
   version="1.1"
   id="svg2856"
   sodipodi:docname="iconSmall.svg"
   inkscape:version="1.1 (ce6663b3b7, 2021-05-25)"
   xmlns:inkscape="http://www.inkscape.org/namespaces/inkscape"
   xmlns:sodipodi="http://sodipodi.sourceforge.net/DTD/sodipodi-0.dtd"
   xmlns="http://www.w3.org/2000/svg"
   xmlns:svg="http://www.w3.org/2000/svg">
  <defs
     id="defs2860" />
  <sodipodi:namedview
     id="namedview2858"
     pagecolor="#ffffff"
     bordercolor="#666666"
     borderopacity="1.0"
     inkscape:pageshadow="2"
     inkscape:pageopacity="0.0"
     inkscape:pagecheckerboard="0"
     showgrid="false"
     inkscape:zoom="15.775"
     inkscape:cx="3.3597464"
     inkscape:cy="14.73851"
     inkscape:window-width="1540"
     inkscape:window-height="844"
     inkscape:window-x="0"
     inkscape:window-y="0"
     inkscape:window-maximized="1"
     inkscape:current-layer="svg2856" />
  <g
     id="g2745"
     transform="matrix(0.66484556,0,0,0.66484556,0.18013447,1.6463181)">
    <g
       id="g2552"
       transform="matrix(0.03565586,0,0,0.03565586,15.001073,11.649365)">
      <path
         style="fill:#959595"
         d="M 63.26181,357.89314 C 49.9466,347.4194 56.60177,320.954 75.60063,308.82572 c 6.58453,-4.20336 11.72959,-3.3708 5.34718,0.86527 -20.31233,13.48147 -26.80722,44.29668 -9.33636,44.29668 8.93038,0 21.95154,-22.86044 22.02805,-38.67327 0.0169,-3.48828 -3.78493,-8.81118 -7.02857,-9.84067 -1.99925,-0.63454 -2.79252,-4.48606 -0.92396,-4.48606 2.24602,0 7.59186,2.87678 9.80139,5.27447 9.63409,10.45449 -2.75819,45.78219 -18.34384,52.29429 -4.99765,2.08815 -10.7332,1.81412 -13.88271,-0.66329 z m 46.91386,-0.29374 c -8.73418,-8.73418 0.77588,-55.5531 16.8585,-82.99601 4.6551,-7.94334 7.61847,-5.03453 3.71354,3.64518 -13.42773,29.84661 -22.33337,67.14451 -17.71508,74.19291 2.88829,4.40809 8.04645,3.08362 17.7313,-4.55289 3.29525,-2.5983 3.66722,-3.41327 4.27774,-9.37225 1.10416,-10.77725 10.5455,-35.02867 13.63704,-35.02867 2.34489,0 1.39764,5.5105 -3.55619,20.68787 -5.31479,16.28325 -6.24591,27.79008 -2.41467,29.8405 4.84585,2.59342 18.88296,-7.96511 20.91849,-15.73462 3.37558,-12.8844 10.71575,-30.38281 14.8049,-35.29375 3.36274,-4.03856 4.93419,-1.4275 2.68515,4.46154 -2.36186,6.18442 -1.51552,6.8309 9.09239,6.94529 l 8.64028,0.0932 2.80197,-7.02421 c 3.33725,-8.36613 8.98095,-18.24013 11.97345,-20.9483 3.49205,-3.16027 4.37273,-0.14292 1.57823,5.40728 -4.3334,8.60668 -9.54786,20.72405 -9.54786,22.18735 0,0.48284 1.0699,0.87788 2.37756,0.87788 1.30765,0 2.87194,0.59571 3.4762,1.32379 1.51244,1.82239 -0.47003,3.67621 -3.93132,3.67621 -4.35658,0 -5.89941,3.08357 -8.0054,16 -1.86815,11.45773 -0.96692,19 2.27032,19 0.61434,0 3.59199,-2.475 6.61699,-5.5 9.3351,-9.3351 11.57843,-6.57892 2.66349,3.27241 -7.63451,8.4364 -12.73473,9.47974 -15.94965,3.26276 -1.93398,-3.7399 -1.98738,-19.27482 -0.0935,-27.19608 1.65141,-6.90704 0.97882,-7.83909 -5.65683,-7.83909 -2.65766,0 -6.39633,-0.65357 -8.30815,-1.45238 -3.28893,-1.3742 -3.55162,-1.33383 -4.88039,0.75 -2.40261,3.76786 -8.34496,22.9133 -8.98624,28.95238 -0.80769,7.60631 0.96134,7.65467 9.14377,0.25 8.71308,-7.88489 11.50251,-7.15922 4.64573,1.20857 -8.81687,10.75983 -19.38258,12.16018 -19.38258,2.56889 0,-2.67578 -2.16638,-2.99421 -4.12756,-0.6067 -2.58355,3.14518 -10.2514,7.32921 -13.43186,7.32921 -3.2845,0 -8.44058,-4.01789 -8.44058,-6.57735 0,-2.4865 -2.00378,-2.52175 -5.24412,-0.0922 -9.08722,6.81331 -16.19848,8.31791 -20.23506,4.28133 z m 143.3287,0.86844 c -2.4987,-1.35731 -7.84952,-10.33941 -7.84952,-13.17651 0,-2.40685 -1.83988,-1.33565 -5.61143,3.26702 -12.50847,15.26493 -21.14339,8.52356 -16.8452,-13.15122 4.02689,-20.30674 12.34818,-39.86645 15.59701,-36.66176 1.0317,1.01769 0.35419,4.07094 -3.55039,16 -6.70752,20.49242 -6.54851,19.89372 -7.5007,28.2423 -1.2473,10.93611 0.26734,11.27069 9.66185,2.13433 2.33813,-2.27388 4.93976,-4.13433 5.78139,-4.13433 0.84163,0 1.69401,-0.5625 1.89418,-1.25 3.0512,-10.47964 4.36194,-13.61192 7.90256,-18.88476 6.11057,-9.1001 19.67073,-18.38539 19.67073,-13.46949 0,0.76767 -2.1375,2.76848 -4.75,4.44625 -18.01407,11.5688 -23.19097,42.158 -7.13479,42.158 9.59748,0 21.72637,-20.71468 21.84917,-37.31574 0.0442,-5.97893 -0.94801,-7.88704 -5.49706,-10.57104 -3.99587,-2.35762 -3.80088,-4.11322 0.45684,-4.11322 9.1044,0 13.40523,11.9593 9.58094,26.64174 -5.76695,22.1408 -21.74617,36.30769 -33.65558,29.83843 z m 34.15048,-1.23168 c 0,-2.99159 3.26933,-14.37534 5.02154,-17.48492 0.53815,-0.95504 0.97846,-2.1578 0.97846,-2.6728 0,-0.96139 8.33664,-19.20569 12.28845,-26.89261 3.9508,-7.68499 8.63774,-9.5791 7.31299,-2.95537 -0.59143,2.95714 -0.56774,2.97661 1.64926,1.35564 17.10907,-12.50936 24.553,-7.97383 17.17065,10.46196 -4.05981,10.13846 -10.42135,29.54034 -10.42135,31.78377 0,3.5005 1.7983,3.41586 9.51116,-0.44764 11.27978,-5.65022 12.0781,-1.92797 0.91813,4.28087 -9.80144,5.45303 -15.42929,3.78287 -15.42929,-4.5789 0,-3.67004 0.42401,-5.25521 4.57362,-17.09849 9.52478,-27.18437 9.50245,-27.82721 -0.7267,-20.92109 -14.64605,9.88815 -15.42284,10.99229 -26.26887,37.33854 -4.22502,10.26306 -6.57805,13.0643 -6.57805,7.83104 z m -282,-2.64164 c -9.39841,-3.63007 -14.70088,-9.06857 -16.93649,-17.371 -1.73586,-6.4465 1.81613,-19.40129 6.35157,-23.16537 2.71522,-2.25343 2.97188,1.2641 0.44382,6.08257 -3.27843,6.24867 -3.30017,17.02728 -0.0435,21.59309 4.25991,5.97245 10.52897,8.75588 19.68465,8.73989 9.42028,-0.0164 12.59235,-1.39421 19.4724,-8.45769 10.54502,-10.82617 9.10344,-16.92529 -7.13378,-30.18209 C 13.43287,300.35418 9.89264,293.22997 14.15385,284.9897 c 3.81873,-7.38461 10.17801,-9.66043 30.50105,-10.91552 7.975,-0.49251 15.14827,-1.05096 15.94061,-1.24099 0.79234,-0.19004 1.60173,0.38436 1.79866,1.27643 0.55896,2.53201 -5.84542,4.51723 -18.73927,5.80878 -14.22324,1.42472 -18.07843,2.42294 -21.95493,5.6848 -6.62687,5.57614 -3.70388,10.70975 15.14923,26.60639 12.36698,10.42765 12.9424,22.69401 1.59681,34.0396 -8.43396,8.43396 -22.97825,12.13548 -32.79111,8.34533 z m 231.5,-77.27319 c -28.71399,-2.36983 -31.77788,-2.9632 -47.96612,-9.28937 -3.77688,-1.47596 -1.83721,-3.00653 3.83856,-3.02898 3.32801,-0.0132 3.69743,-0.2262 2.62756,-1.51531 -1.45393,-1.75188 -4,-1.9993 -4,-0.38871 0,0.72947 -1.20838,0.8846 -3.51701,0.4515 -1.93436,-0.36289 -4.06426,-0.32158 -4.73312,0.0918 -1.77224,1.0953 -43.85968,0.45654 -53.24987,-0.80817 -21.28125,-2.86626 -33.15618,-8.78423 -38.82032,-19.34642 -3.83989,-7.16042 -3.17599,-23.26088 1.32032,-32.0195 3.24488,-6.32089 9.15141,-12.03097 14.17808,-13.70653 0.92333,-0.30777 0.83275,-1.25019 -0.36916,-3.84091 -2.03332,-4.38284 -6.80892,-18.74658 -6.80892,-20.47944 0,-0.72537 -0.91311,-1.60865 -2.02913,-1.96286 -1.81238,-0.57523 -2.0114,-1.41027 -1.86321,-7.81739 0.0912,-3.94535 0.0699,-14.59837 -0.0474,-23.67337 -0.44912,-34.74567 10.07703,-64.00942 32.55441,-90.50449 2.96191,-3.49133 5.38529,-6.88398 5.38529,-7.53922 0,-1.20926 -4.3536,-6.26117 -27.23085,-31.59862 C 99.40097,2.56706 93.65485,-4.47641 93.65485,-5.30682 c 0,-2.04615 18.78238,-19.70551 20.95865,-19.70551 0.97826,0 7.78527,6.82453 15.63688,15.67714 7.64746,8.62242 17.03145,19.19742 20.85332,23.5 3.82187,4.30257 7.39343,7.82286 7.93679,7.82286 0.54337,0 6.41638,-2.70169 13.05115,-6.00376 21.1879,-10.54503 39.28303,-14.40113 64.15567,-13.67166 8.74915,0.2566 18.15754,0.93393 20.90754,1.50518 12.92763,2.68544 15.48952,3.35286 22.5,5.86161 32.6766,11.69357 61.50213,37.9341 77.23487,70.30863 40.48219,83.30345 -13.69192,183.22914 -105.98375,195.49006 -2.88689,0.38352 -5.50095,1.10515 -5.80902,1.60362 -0.30807,0.49848 -1.32108,0.83067 -2.25112,0.73822 -0.93004,-0.0925 -3.49098,-0.31666 -5.69098,-0.49824 z m -2.37244,-13.98568 c 0.80372,-0.96745 1.44342,-4.3514 1.54372,-8.1662 0.19772,-7.5192 -0.13565,-7.22312 10.82872,-9.61751 20.30066,-4.43325 29.57395,-7.75211 41.16782,-14.73375 58.20108,-35.04772 68.84239,-117.33704 21.48724,-166.16098 -57.93693,-59.73394 -159.68186,-32.79327 -180.63794,47.83046 -1.80802,6.95594 -3.99674,25.35371 -3.1205,26.22996 0.32756,0.32755 5.65981,0.0165 11.84947,-0.6912 14.37438,-1.64352 45.46595,-0.90004 55.0887,1.31733 16.92825,3.90076 28.29249,13.20223 33.16359,27.14391 4.17975,11.96292 4.62973,16.93223 5.18409,57.25 0.53748,39.09055 0.53134,39.25 -1.51238,39.25 -1.12863,0 -2.33017,0.45 -2.67009,1 -1.07622,1.74136 6.15257,1.12343 7.62756,-0.65202 z M 198.32152,260.321 c -0.36667,-0.36666 -0.96667,-0.36666 -1.33334,0 -0.36666,0.36667 -0.0667,0.66667 0.66667,0.66667 0.73333,0 1.03333,-0.3 0.66667,-0.66667 z m -51.66667,-12.65367 c 0,-0.17619 -4.62186,-5.01369 -10.27079,-10.75 -11.29019,-11.46482 -15.53498,-18.3396 -12.40515,-20.09114 0.9449,-0.52879 1.52651,-1.27128 1.29246,-1.64998 -0.23404,-0.3787 0.76899,-0.7273 2.22897,-0.77468 28.85719,-0.93638 24.71585,-1.91235 39.65451,9.34517 7.57465,5.70813 20.59317,12.80731 29.80977,16.25568 5.3671,2.00809 5.94588,2.0478 8.21135,0.56341 6.79494,-4.45222 7.45963,-16.45837 1.22737,-22.1698 -7.53895,-6.90893 -18.15086,-8.11636 -67.24849,-7.65158 -7.15,0.0677 -13.89334,0.13012 -14.98519,0.13873 -1.09185,0.009 -2.14185,0.48566 -2.33333,1.0601 -0.19148,0.57444 -1.84564,1.04443 -3.67592,1.04443 -5.89264,0 -8.50636,4.40448 -8.50182,14.32673 0.006,12.93459 3.38717,16.65811 17.44611,19.21205 6.38547,1.15997 19.55015,1.92822 19.55015,1.14088 z m 63.70001,-56.42966 c -1.12898,-21.91479 -6.61007,-31.58937 -20.23903,-35.72351 -10.55971,-3.20313 -57.93643,-1.47833 -63.34325,2.30608 -1.31025,0.91709 -3.30765,2.20125 -4.43866,2.8537 -2.21562,1.27812 -4.42125,4.92797 -5.72486,9.47341 -1.21706,4.24362 1.98912,3.75233 6.24346,-0.95671 4.01657,-4.44587 4.57631,-4.07434 8.73376,5.79703 1.27402,3.025 3.61711,8.0875 5.20688,11.25 l 2.89048,5.75 9.23561,0.002 c 27.25555,0.007 51.74883,3.84612 58.03822,9.09662 3.75987,3.13881 4.02664,2.36545 3.39739,-9.84905 z M 183.98818,265.321 c 0.36667,-0.36666 0.96667,-0.36666 1.33334,0 0.36666,0.36667 0.0667,0.66667 -0.66667,0.66667 -0.73333,0 -1.03333,-0.3 -0.66667,-0.66667 z m -273.33333,-0.95825 c -31.78352,-3.42069 -45.66321,-14.564 -50.60796,-40.6306 -1.9615,-10.34019 -2.30852,-73.73578 -0.4584,-83.74448 5.40309,-29.22951 18.67658,-39.68621 54.56636,-42.98674 14.09433,-1.29615 79.08773,-1.31715 92.64405,-0.0299 38.71592,3.67622 53.73727,16.22902 55.066,46.01666 l 0.28995,6.5 h -10 -10 l -0.58058,-6.5 C 40.06041,126.03902 34.18849,118.89533 18.80176,115.28296 8.05193,112.75921 -86.81582,112.65412 -97.52319,115.1541 c -21.11587,4.93018 -23.80273,12.26492 -23.81489,65.01123 -0.0128,55.54959 3.00511,63.0165 26.99293,66.78586 10.30466,1.61924 101.7088,1.28614 111.19349,-0.40522 19.19877,-3.42364 25.37845,-12.8485 24.62618,-37.5583 l -0.31967,-10.5 -39.94818,-0.26165 c -44.89348,-0.29404 -41.52119,0.41568 -41.52119,-8.73835 0,-9.29404 -4.68119,-8.551 52.03417,-8.25935 l 50.4352,0.25935 0.28942,14 c 0.94155,45.54634 -7.39749,59.5816 -39.88469,67.12907 -6.99088,1.62413 -99.60997,3.06924 -111.90473,1.74601 z m -266.60308,-3.89197 c -13.40512,-2.45437 -21.35915,-8.35099 -25.15882,-18.65115 -2.58059,-6.99551 -4.51454,-22.31063 -4.08278,-32.33196 l 0.34468,-8 8.84889,-0.29038 c 11.76251,-0.38598 11.64096,-0.52278 11.69524,13.16282 0.0735,18.5276 3.9671,27.13394 13.34391,29.49505 5.89412,1.48416 68.59973,1.54294 75.46435,0.0707 7.47763,-1.60367 13.43263,-5.84448 16.2535,-11.57482 2.39411,-4.86337 2.39411,-4.86337 2.89411,-68.36337 l 0.5,-63.5 7.5,-0.25574 c 7.2812,-0.24828 7.60211,-0.36703 11,-4.07045 13.13782,-14.31916 28.3282,-18.31649 51.7043,-13.60593 3.00189,0.60492 3.39305,0.33891 6.19233,-4.21109 5.86362,-9.53084 4.70286,-9.08722 12.93281,-4.94268 9.12103,4.59327 9.23718,4.97183 4.29086,13.98429 l -4.08002,7.43401 3.88332,5.83379 c 10.27741,15.43942 10.91095,36.50766 1.54493,51.3761 -3.7273,5.91704 -12.82589,12.93732 -11.16804,8.61702 0.65977,-1.71934 -0.93641,-4.35646 -1.99612,-3.29787 -0.4424,0.44194 -1.02937,24.0539 -1.30437,52.47104 l -0.5,51.66751 h -10 -10 l -0.5,-43 -0.5,-43 -4,-0.24852 c -12.05217,-0.7488 -20.01056,-3.60299 -27.41227,-9.83112 -3.08773,-2.59815 -3.08773,-2.59815 -3.03217,-15.75925 0.0555,-13.16111 0.0555,-13.16111 2.25,-10.22616 8.53591,11.4163 17.50726,16.90061 26.78311,16.3729 l 5.41133,-0.30785 0.30076,-6.97235 c 0.36559,-8.47537 0.3903,-8.49315 11.82792,-8.51234 9.02562,-0.0151 9.14081,-0.0464 10.20322,-2.76531 2.37026,-6.06601 3.31244,-11.80218 2.65744,-16.1789 -0.9231,-6.16825 -1.43099,-6.70614 -3.35125,-3.54921 -1.52229,2.50267 -2.19782,2.71695 -9.55568,3.03108 -11.32856,0.48364 -11.4531,0.36414 -11.79639,-11.31888 l -0.28602,-9.73409 -6.5,0.0823 c -10.04823,0.1272 -19.21469,6.42344 -26.08573,17.91772 l -2.39112,4 -0.53902,-3 c -1.3357,-7.43403 -1.86156,3.22691 -2.44769,49.62301 -0.34309,27.15735 -1.11336,53.20199 -1.71171,57.87699 -2.73836,21.39512 -12.39841,30.71621 -35.82473,34.56763 -11.40719,1.87541 -73.23987,1.8129 -83.60308,-0.0845 z M -157.59515,56.44455 c -3.7125,-1.91645 -6.75,-3.93262 -6.75,-4.48038 0,-1.35493 16.77182,-32.14027 18.41782,-33.80663 1.45262,-1.47059 15.18179,4.62316 16.16016,7.17276 0.83219,2.16864 -16.99159,34.12498 -19.17448,34.37803 -1.04693,0.12137 -4.941,-1.34733 -8.6535,-3.26378 z m 29.95453,-52.04278 c -7.64246,-3.92221 -8.69951,-5.45972 -6.41382,-9.32908 3.79906,-6.4313 12.70929,-23.51692 12.70929,-24.37043 0,-0.5145 -3.36804,-4.5157 -7.48453,-8.89155 -6.98673,-7.42694 -11.52274,-14.92676 -16.37419,-27.07304 l -1.0984,-2.75 h -22.94948 -22.94949 l -0.65156,-5.25 c -0.35835,-2.8875 -0.50323,-7.05 -0.32195,-9.25 l 0.3296,-4 22.5,-0.58568 c 12.375,-0.32212 22.55453,-0.65962 22.62117,-0.75 0.0666,-0.0904 0.41411,-2.30182 0.77216,-4.91432 0.35805,-2.6125 2.02307,-8.575 3.70004,-13.25 4.20652,-11.7267 4.46305,-13.98712 2.1118,-18.6079 -3.2183,-6.32477 -6.21186,-17.7059 -7.80742,-29.68284 -7.16292,-53.76766 30.17119,-105.96969 83.86597,-117.26474 9.04178,-1.90199 32.90328,-1.89648 42.73628,0.01 33.05004,6.40751 62.06589,28.95542 76.24036,59.24555 2.75876,5.89534 3.27353,6.44476 5.64754,6.02772 2.56836,-0.45119 34.78558,-7.78575 42.6121,-9.70106 6.56862,-1.60748 7.32392,-1.36495 8.48145,2.7234 2.72776,9.63434 5.83918,24.82082 5.21409,25.44927 -0.70298,0.70675 -38.08317,9.47569 -45.95513,10.78052 -5.64943,0.93642 -5.36855,0.2857 -5.69208,13.18728 -0.45445,18.12235 -5.45631,35.61018 -14.58922,51.00776 -4.8357,8.15271 -4.8338,8.03267 -0.20911,13.24374 2.0625,2.32401 12.8625,14.43317 24,26.90925 11.1375,12.47594 20.25,23.0861 20.25,23.57799 0,1.19257 -20.45232,20.09406 -21.74274,20.09406 -0.55502,0 -5.22746,-4.78573 -10.38319,-10.63495 -5.15574,-5.84923 -12.07407,-13.68184 -15.37407,-17.40581 -3.3,-3.72396 -9.57735,-10.86324 -13.94966,-15.86504 -9.11333,-10.42541 -8.62678,-10.25535 -15.69985,-5.48758 -7.00309,4.72059 -14.39601,8.38984 -24.88267,12.34976 l -8.53217,3.22188 -4.40755,8.60759 c -13.32841,26.02929 -41.7881,40.80074 -69.12887,35.88 -5.16958,-0.9304 -10.25821,-1.79834 -11.30807,-1.92875 -1.50101,-0.18644 -3.42389,2.54917 -9,12.804 -8.07946,14.85865 -8.45659,15.47688 -9.40018,15.40972 -0.38004,-0.0271 -3.74894,-1.61857 -7.48645,-3.53672 z m 54.52937,-41.42756 c 11.82437,-1.71002 24.31582,-9.26492 30.22152,-18.27816 2.35863,-3.59972 1.28186,-4.70838 -4.57288,-4.70838 -24.0819,0 -51.74206,-12.14841 -70.67428,-31.04032 -8.71409,-8.69553 -9.2584,-8.49256 -9.95251,3.71137 -1.57712,27.72935 17.51589,48.62573 46.74425,51.15931 0.825,0.0715 4.53025,-0.30821 8.2339,-0.84382 z m 38.06362,-54.23654 c 4.50651,-3.35349 -5.99563,-22.50674 -16.82353,-30.68189 -14.41832,-10.88594 -39.71856,-12.65316 -52.05063,-3.63573 -5.63998,4.12406 17.881,24.6029 35.17698,30.62728 13.16719,4.58628 30.01389,6.43124 33.69718,3.69034 z m 30.02765,-8.98499 c 57.14577,-33.73063 48.83535,-117.55191 -13.82517,-139.44456 -9.44854,-3.30117 -33.39009,-4.09927 -43,-1.43341 -39.27867,10.89619 -64.30419,50.56608 -56.12836,88.97343 2.09331,9.83372 2.80188,10.60182 7.54698,8.18105 17.41853,-8.88627 41.83874,-8.88797 59.50012,-0.004 16.44823,8.27361 29.97311,24.68444 34.58324,41.96262 1.99556,7.4791 1.71625,7.43557 11.32319,1.76501 z M -354.84515,4.49929 c -31.03123,-6.46475 -55.30211,-28.55461 -65.02166,-59.1787 -16.09074,-50.69825 19.52372,-104.84636 72.53806,-110.28666 47.65549,-4.89038 88.43171,27.84273 95.23982,76.45374 0.26917,1.92198 1.04014,2 19.76194,2 h 19.48184 l 0.76805,8.48176 c 1.08337,11.96374 2.81647,11.01824 -20.19652,11.01824 h -19.99125 l -1.15915,4.25 c -7.92176,29.04504 -21.2238,46.62479 -45.0095,59.4838 -15.82775,8.55679 -37.99914,11.6137 -56.41163,7.77782 z m 29.75741,-18.96444 c 20.26871,-3.61364 40.03608,-19.15602 48.16725,-37.8722 6.25835,-14.40535 7.15889,-34.10389 2.21734,-48.50267 -16.0242,-46.69169 -75.21481,-60.48888 -110.19868,-25.68707 -46.4435,46.2018 -5.11158,123.63732 59.81409,112.06194 z m 649.45209,-154.07048 c -22.56371,-4.92205 -42.49722,-20.65931 -52.41359,-41.37988 -5.5342,-11.5639 -4.32167,-11.07255 -19.05326,-7.72083 -7.60724,1.7308 -10.60165,2.04829 -11.59001,1.22888 -1.29987,-1.07768 -5.54261,-17.46489 -6.40976,-24.7571 -0.50218,-4.22306 -1.45302,-3.74955 13.75712,-6.85081 15.0991,-3.07861 14.82644,-2.86707 17.51826,-13.59174 9.00882,-35.89279 42.02811,-60.31199 78.53848,-58.08262 54.22456,3.31102 88.07693,61.82055 63.71526,110.12377 -15.5759,30.88319 -51.09788,48.22123 -84.0625,41.03033 z m 24.40401,-29.47824 c 30.4409,-5.66005 46.38325,-41.56883 30.49264,-68.68203 -21.60211,-36.8584 -77.45501,-25.71317 -84.64093,16.88976 -5.02506,29.79196 23.86326,57.42334 54.14829,51.79227 z m -202.4407,2.25154 c -0.24487,-0.4125 -1.88156,-6.58035 -3.63708,-13.70633 -3.3744,-13.69729 -3.16911,-15.54367 1.72821,-15.54367 0.75993,0 5.28642,-0.9175 10.05887,-2.03889 8.80603,-2.06916 13.57787,-3.16126 21.67719,-4.96111 9.77331,-2.17185 13.24933,-2.96459 19.42483,-4.43006 4.3666,-1.03621 6.81344,-1.20212 7.63789,-0.51788 1.11649,0.9266 6.11799,20.26792 6.68995,25.87074 0.30285,2.96667 -0.90329,3.36276 -27.75267,9.11381 -10.45,2.23835 -21.72875,4.72081 -25.06389,5.51656 -6.7366,1.60734 -10.09377,1.82468 -10.7633,0.69683 z"
         id="path2560" />
      <path
         style="fill:#616161"
         d="M 63.26181,357.89314 C 49.9466,347.4194 56.60177,320.954 75.60063,308.82572 c 6.58453,-4.20336 11.72959,-3.3708 5.34718,0.86527 -20.31233,13.48147 -26.80722,44.29668 -9.33636,44.29668 8.93038,0 21.95154,-22.86044 22.02805,-38.67327 0.0169,-3.48828 -3.78493,-8.81118 -7.02857,-9.84067 -1.99925,-0.63454 -2.79252,-4.48606 -0.92396,-4.48606 2.24602,0 7.59186,2.87678 9.80139,5.27447 9.63409,10.45449 -2.75819,45.78219 -18.34384,52.29429 -4.99765,2.08815 -10.7332,1.81412 -13.88271,-0.66329 z m 46.91386,-0.29374 c -8.73418,-8.73418 0.77588,-55.5531 16.8585,-82.99601 4.6551,-7.94334 7.61847,-5.03453 3.71354,3.64518 -13.42773,29.84661 -22.33337,67.14451 -17.71508,74.19291 2.88829,4.40809 8.04645,3.08362 17.7313,-4.55289 3.29525,-2.5983 3.66722,-3.41327 4.27774,-9.37225 1.10416,-10.77725 10.5455,-35.02867 13.63704,-35.02867 2.34489,0 1.39764,5.5105 -3.55619,20.68787 -5.31479,16.28325 -6.24591,27.79008 -2.41467,29.8405 4.84585,2.59342 18.88296,-7.96511 20.91849,-15.73462 3.37558,-12.8844 10.71575,-30.38281 14.8049,-35.29375 3.36274,-4.03856 4.93419,-1.4275 2.68515,4.46154 -2.36186,6.18442 -1.51552,6.8309 9.09239,6.94529 l 8.64028,0.0932 2.80197,-7.02421 c 3.33725,-8.36613 8.98095,-18.24013 11.97345,-20.9483 3.49205,-3.16027 4.37273,-0.14292 1.57823,5.40728 -4.3334,8.60668 -9.54786,20.72405 -9.54786,22.18735 0,0.48284 1.0699,0.87788 2.37756,0.87788 1.30765,0 2.87194,0.59571 3.4762,1.32379 1.51244,1.82239 -0.47003,3.67621 -3.93132,3.67621 -4.35658,0 -5.89941,3.08357 -8.0054,16 -1.86815,11.45773 -0.96692,19 2.27032,19 0.61434,0 3.59199,-2.475 6.61699,-5.5 9.3351,-9.3351 11.57843,-6.57892 2.66349,3.27241 -7.63451,8.4364 -12.73473,9.47974 -15.94965,3.26276 -1.93398,-3.7399 -1.98738,-19.27482 -0.0935,-27.19608 1.65141,-6.90704 0.97882,-7.83909 -5.65683,-7.83909 -2.65766,0 -6.39633,-0.65357 -8.30815,-1.45238 -3.28893,-1.3742 -3.55162,-1.33383 -4.88039,0.75 -2.40261,3.76786 -8.34496,22.9133 -8.98624,28.95238 -0.80769,7.60631 0.96134,7.65467 9.14377,0.25 8.71308,-7.88489 11.50251,-7.15922 4.64573,1.20857 -8.81687,10.75983 -19.38258,12.16018 -19.38258,2.56889 0,-2.67578 -2.16638,-2.99421 -4.12756,-0.6067 -2.58355,3.14518 -10.2514,7.32921 -13.43186,7.32921 -3.2845,0 -8.44058,-4.01789 -8.44058,-6.57735 0,-2.4865 -2.00378,-2.52175 -5.24412,-0.0922 -9.08722,6.81331 -16.19848,8.31791 -20.23506,4.28133 z m 143.3287,0.86844 c -2.4987,-1.35731 -7.84952,-10.33941 -7.84952,-13.17651 0,-2.40685 -1.83988,-1.33565 -5.61143,3.26702 -12.50847,15.26493 -21.14339,8.52356 -16.8452,-13.15122 4.02689,-20.30674 12.34818,-39.86645 15.59701,-36.66176 1.0317,1.01769 0.35419,4.07094 -3.55039,16 -6.70752,20.49242 -6.54851,19.89372 -7.5007,28.2423 -1.2473,10.93611 0.26734,11.27069 9.66185,2.13433 2.33813,-2.27388 4.93976,-4.13433 5.78139,-4.13433 0.84163,0 1.69401,-0.5625 1.89418,-1.25 3.0512,-10.47964 4.36194,-13.61192 7.90256,-18.88476 6.11057,-9.1001 19.67073,-18.38539 19.67073,-13.46949 0,0.76767 -2.1375,2.76848 -4.75,4.44625 -18.01407,11.5688 -23.19097,42.158 -7.13479,42.158 9.59748,0 21.72637,-20.71468 21.84917,-37.31574 0.0442,-5.97893 -0.94801,-7.88704 -5.49706,-10.57104 -3.99587,-2.35762 -3.80088,-4.11322 0.45684,-4.11322 9.1044,0 13.40523,11.9593 9.58094,26.64174 -5.76695,22.1408 -21.74617,36.30769 -33.65558,29.83843 z m 34.15048,-1.23168 c 0,-2.99159 3.26933,-14.37534 5.02154,-17.48492 0.53815,-0.95504 0.97846,-2.1578 0.97846,-2.6728 0,-0.96139 8.33664,-19.20569 12.28845,-26.89261 3.9508,-7.68499 8.63774,-9.5791 7.31299,-2.95537 -0.59143,2.95714 -0.56774,2.97661 1.64926,1.35564 17.10907,-12.50936 24.553,-7.97383 17.17065,10.46196 -4.05981,10.13846 -10.42135,29.54034 -10.42135,31.78377 0,3.5005 1.7983,3.41586 9.51116,-0.44764 11.27978,-5.65022 12.0781,-1.92797 0.91813,4.28087 -9.80144,5.45303 -15.42929,3.78287 -15.42929,-4.5789 0,-3.67004 0.42401,-5.25521 4.57362,-17.09849 9.52478,-27.18437 9.50245,-27.82721 -0.7267,-20.92109 -14.64605,9.88815 -15.42284,10.99229 -26.26887,37.33854 -4.22502,10.26306 -6.57805,13.0643 -6.57805,7.83104 z m -282,-2.64164 c -9.39841,-3.63007 -14.70088,-9.06857 -16.93649,-17.371 -1.73586,-6.4465 1.81613,-19.40129 6.35157,-23.16537 2.71522,-2.25343 2.97188,1.2641 0.44382,6.08257 -3.27843,6.24867 -3.30017,17.02728 -0.0435,21.59309 4.25991,5.97245 10.52897,8.75588 19.68465,8.73989 9.42028,-0.0164 12.59235,-1.39421 19.4724,-8.45769 10.54502,-10.82617 9.10344,-16.92529 -7.13378,-30.18209 C 13.43287,300.35418 9.89264,293.22997 14.15385,284.9897 c 3.81873,-7.38461 10.17801,-9.66043 30.50105,-10.91552 7.975,-0.49251 15.14827,-1.05096 15.94061,-1.24099 0.79234,-0.19004 1.60173,0.38436 1.79866,1.27643 0.55896,2.53201 -5.84542,4.51723 -18.73927,5.80878 -14.22324,1.42472 -18.07843,2.42294 -21.95493,5.6848 -6.62687,5.57614 -3.70388,10.70975 15.14923,26.60639 12.36698,10.42765 12.9424,22.69401 1.59681,34.0396 -8.43396,8.43396 -22.97825,12.13548 -32.79111,8.34533 z m 231.5,-77.27319 c -28.71399,-2.36983 -31.77788,-2.9632 -47.96612,-9.28937 -3.77688,-1.47596 -1.83721,-3.00653 3.83856,-3.02898 3.32801,-0.0132 3.69743,-0.2262 2.62756,-1.51531 -1.45393,-1.75188 -4,-1.9993 -4,-0.38871 0,0.72947 -1.20838,0.8846 -3.51701,0.4515 -1.93436,-0.36289 -4.06426,-0.32158 -4.73312,0.0918 -1.77224,1.0953 -43.85968,0.45654 -53.24987,-0.80817 -21.28125,-2.86626 -33.15618,-8.78423 -38.82032,-19.34642 -3.83989,-7.16042 -3.17599,-23.26088 1.32032,-32.0195 3.24488,-6.32089 9.15141,-12.03097 14.17808,-13.70653 0.92333,-0.30777 0.83275,-1.25019 -0.36916,-3.84091 -2.03332,-4.38284 -6.80892,-18.74658 -6.80892,-20.47944 0,-0.72537 -0.91311,-1.60865 -2.02913,-1.96286 -1.81238,-0.57523 -2.0114,-1.41027 -1.86321,-7.81739 0.0912,-3.94535 0.0699,-14.59837 -0.0474,-23.67337 -0.44912,-34.74567 10.07703,-64.00942 32.55441,-90.50449 2.96191,-3.49133 5.38529,-6.88398 5.38529,-7.53922 0,-1.20926 -4.3536,-6.26117 -27.23085,-31.59862 C 99.40097,2.56706 93.65485,-4.47641 93.65485,-5.30682 c 0,-2.04615 18.78238,-19.70551 20.95865,-19.70551 0.97826,0 7.78527,6.82453 15.63688,15.67714 7.64746,8.62242 17.03145,19.19742 20.85332,23.5 3.82187,4.30257 7.39343,7.82286 7.93679,7.82286 0.54337,0 6.41638,-2.70169 13.05115,-6.00376 21.1879,-10.54503 39.28303,-14.40113 64.15567,-13.67166 8.74915,0.2566 18.15754,0.93393 20.90754,1.50518 12.92763,2.68544 15.48952,3.35286 22.5,5.86161 32.6766,11.69357 61.50213,37.9341 77.23487,70.30863 40.48219,83.30345 -13.69192,183.22914 -105.98375,195.49006 -2.88689,0.38352 -5.50095,1.10515 -5.80902,1.60362 -0.30807,0.49848 -1.32108,0.83067 -2.25112,0.73822 -0.93004,-0.0925 -3.49098,-0.31666 -5.69098,-0.49824 z m -2.37244,-13.98568 c 0.80372,-0.96745 1.44342,-4.3514 1.54372,-8.1662 0.19772,-7.5192 -0.13565,-7.22312 10.82872,-9.61751 20.30066,-4.43325 29.57395,-7.75211 41.16782,-14.73375 58.20108,-35.04772 68.84239,-117.33704 21.48724,-166.16098 -57.93693,-59.73394 -159.68186,-32.79327 -180.63794,47.83046 -1.80802,6.95594 -3.99674,25.35371 -3.1205,26.22996 0.32756,0.32755 5.65981,0.0165 11.84947,-0.6912 14.37438,-1.64352 45.46595,-0.90004 55.0887,1.31733 16.92825,3.90076 28.29249,13.20223 33.16359,27.14391 4.17975,11.96292 4.62973,16.93223 5.18409,57.25 0.53748,39.09055 0.53134,39.25 -1.51238,39.25 -1.12863,0 -2.33017,0.45 -2.67009,1 -1.07622,1.74136 6.15257,1.12343 7.62756,-0.65202 z M 198.32152,260.321 c -0.36667,-0.36666 -0.96667,-0.36666 -1.33334,0 -0.36666,0.36667 -0.0667,0.66667 0.66667,0.66667 0.73333,0 1.03333,-0.3 0.66667,-0.66667 z m -51.66667,-12.65367 c 0,-0.17619 -4.62186,-5.01369 -10.27079,-10.75 -11.29019,-11.46482 -15.53498,-18.3396 -12.40515,-20.09114 0.9449,-0.52879 1.52651,-1.27128 1.29246,-1.64998 -0.23404,-0.3787 0.76899,-0.7273 2.22897,-0.77468 28.85719,-0.93638 24.71585,-1.91235 39.65451,9.34517 7.57465,5.70813 20.59317,12.80731 29.80977,16.25568 5.3671,2.00809 5.94588,2.0478 8.21135,0.56341 6.79494,-4.45222 7.45963,-16.45837 1.22737,-22.1698 -7.53895,-6.90893 -18.15086,-8.11636 -67.24849,-7.65158 -7.15,0.0677 -13.89334,0.13012 -14.98519,0.13873 -1.09185,0.009 -2.14185,0.48566 -2.33333,1.0601 -0.19148,0.57444 -1.84564,1.04443 -3.67592,1.04443 -5.89264,0 -8.50636,4.40448 -8.50182,14.32673 0.006,12.93459 3.38717,16.65811 17.44611,19.21205 6.38547,1.15997 19.55015,1.92822 19.55015,1.14088 z m 63.70001,-56.42966 c -1.12898,-21.91479 -6.61007,-31.58937 -20.23903,-35.72351 -10.55971,-3.20313 -57.93643,-1.47833 -63.34325,2.30608 -1.31025,0.91709 -3.30765,2.20125 -4.43866,2.8537 -2.21562,1.27812 -4.42125,4.92797 -5.72486,9.47341 -1.21706,4.24362 1.98912,3.75233 6.24346,-0.95671 4.01657,-4.44587 4.57631,-4.07434 8.73376,5.79703 1.27402,3.025 3.61711,8.0875 5.20688,11.25 l 2.89048,5.75 9.23561,0.002 c 27.25555,0.007 51.74883,3.84612 58.03822,9.09662 3.75987,3.13881 4.02664,2.36545 3.39739,-9.84905 z M 183.98818,265.321 c 0.36667,-0.36666 0.96667,-0.36666 1.33334,0 0.36666,0.36667 0.0667,0.66667 -0.66667,0.66667 -0.73333,0 -1.03333,-0.3 -0.66667,-0.66667 z m -273.33333,-0.95825 c -31.78352,-3.42069 -45.66321,-14.564 -50.60796,-40.6306 -1.9615,-10.34019 -2.30852,-73.73578 -0.4584,-83.74448 5.40309,-29.22951 18.67658,-39.68621 54.56636,-42.98674 14.09433,-1.29615 79.08773,-1.31715 92.64405,-0.0299 38.71592,3.67622 53.73727,16.22902 55.066,46.01666 l 0.28995,6.5 h -10 -10 l -0.58058,-6.5 C 40.06041,126.03902 34.18849,118.89533 18.80176,115.28296 8.05193,112.75921 -86.81582,112.65412 -97.52319,115.1541 c -21.11587,4.93018 -23.80273,12.26492 -23.81489,65.01123 -0.0128,55.54959 3.00511,63.0165 26.99293,66.78586 10.30466,1.61924 101.7088,1.28614 111.19349,-0.40522 19.19877,-3.42364 25.37845,-12.8485 24.62618,-37.5583 l -0.31967,-10.5 -39.94818,-0.26165 c -44.89348,-0.29404 -41.52119,0.41568 -41.52119,-8.73835 0,-9.29404 -4.68119,-8.551 52.03417,-8.25935 l 50.4352,0.25935 0.28942,14 c 0.94155,45.54634 -7.39749,59.5816 -39.88469,67.12907 -6.99088,1.62413 -99.60997,3.06924 -111.90473,1.74601 z m -266.60308,-3.89197 c -13.40512,-2.45437 -21.35915,-8.35099 -25.15882,-18.65115 -2.58059,-6.99551 -4.51454,-22.31063 -4.08278,-32.33196 l 0.34468,-8 8.84889,-0.29038 c 11.76251,-0.38598 11.64096,-0.52278 11.69524,13.16282 0.0735,18.5276 3.9671,27.13394 13.34391,29.49505 5.89412,1.48416 68.59973,1.54294 75.46435,0.0707 7.47763,-1.60367 13.43263,-5.84448 16.2535,-11.57482 2.39411,-4.86337 2.39411,-4.86337 2.89411,-68.36337 l 0.5,-63.5 7.5,-0.25574 c 7.2812,-0.24828 7.60211,-0.36703 11,-4.07045 13.13782,-14.31916 28.3282,-18.31649 51.7043,-13.60593 3.00189,0.60492 3.39305,0.33891 6.19233,-4.21109 5.86362,-9.53084 4.70286,-9.08722 12.93281,-4.94268 9.12103,4.59327 9.23718,4.97183 4.29086,13.98429 l -4.08002,7.43401 3.88332,5.83379 c 10.27741,15.43942 10.91095,36.50766 1.54493,51.3761 -3.7273,5.91704 -12.82589,12.93732 -11.16804,8.61702 0.65977,-1.71934 -0.93641,-4.35646 -1.99612,-3.29787 -0.4424,0.44194 -1.02937,24.0539 -1.30437,52.47104 l -0.5,51.66751 h -10 -10 l -0.5,-43 -0.5,-43 -4,-0.24852 c -12.05217,-0.7488 -20.01056,-3.60299 -27.41227,-9.83112 -3.08773,-2.59815 -3.08773,-2.59815 -3.03217,-15.75925 0.0555,-13.16111 0.0555,-13.16111 2.25,-10.22616 8.53591,11.4163 17.50726,16.90061 26.78311,16.3729 l 5.41133,-0.30785 0.30076,-6.97235 c 0.36559,-8.47537 0.3903,-8.49315 11.82792,-8.51234 9.02562,-0.0151 9.14081,-0.0464 10.20322,-2.76531 2.37026,-6.06601 3.31244,-11.80218 2.65744,-16.1789 -0.9231,-6.16825 -1.43099,-6.70614 -3.35125,-3.54921 -1.52229,2.50267 -2.19782,2.71695 -9.55568,3.03108 -11.32856,0.48364 -11.4531,0.36414 -11.79639,-11.31888 l -0.28602,-9.73409 -6.5,0.0823 c -10.04823,0.1272 -19.21469,6.42344 -26.08573,17.91772 l -2.39112,4 -0.53902,-3 c -1.3357,-7.43403 -1.86156,3.22691 -2.44769,49.62301 -0.34309,27.15735 -1.11336,53.20199 -1.71171,57.87699 -2.73836,21.39512 -12.39841,30.71621 -35.82473,34.56763 -11.40719,1.87541 -73.23987,1.8129 -83.60308,-0.0845 z M -157.59515,56.44455 c -3.7125,-1.91645 -6.75,-3.93262 -6.75,-4.48038 0,-1.35493 16.77182,-32.14027 18.41782,-33.80663 1.45262,-1.47059 15.18179,4.62316 16.16016,7.17276 0.83219,2.16864 -16.99159,34.12498 -19.17448,34.37803 -1.04693,0.12137 -4.941,-1.34733 -8.6535,-3.26378 z m 29.95453,-52.04278 c -7.64246,-3.92221 -8.69951,-5.45972 -6.41382,-9.32908 4.15878,-7.04027 12.70929,-23.55812 12.70929,-24.55179 0,-0.61425 -2.06621,-3.12301 -4.59159,-5.57502 -8.62821,-8.37758 -16.95179,-22.47225 -18.57758,-31.45821 -0.35207,-1.94594 -0.99935,-1.98984 -23.94508,-1.62416 l -23.58322,0.37584 -0.64026,-3.87584 c -1.14767,-6.94749 -0.7833,-14.39217 0.73288,-14.97398 3.66898,-1.40792 38.98374,1.25095 40.04965,3.01536 1.60298,2.6534 23.2353,21.57485 24.73875,21.63859 0.72405,0.0307 3.20646,2.45169 5.51647,5.37998 4.71033,5.97107 13.02265,13.35336 18.29998,16.25247 1.925,1.05751 7.325,5.60179 12,10.0984 4.675,4.49661 9.77859,8.70575 11.34132,9.35364 5.07646,2.10467 0.5447,2.94516 -9.50407,1.76268 -5.13549,-0.60431 -10.42313,-1.1672 -11.75032,-1.25086 -2.1108,-0.13307 -3.3008,1.48144 -9.5,12.88898 -8.07242,14.85455 -8.4519,15.47691 -9.39595,15.40972 -0.38004,-0.0271 -3.74894,-1.61857 -7.48645,-3.53672 z m -227.20453,0.09752 c -31.03123,-6.46475 -55.30211,-28.55461 -65.02166,-59.1787 -16.09074,-50.69825 19.52372,-104.84636 72.53806,-110.28666 47.65549,-4.89038 88.43171,27.84273 95.23982,76.45374 0.26917,1.92198 1.04014,2 19.76194,2 h 19.48184 l 0.76805,8.48176 c 1.08337,11.96374 2.81647,11.01824 -20.19652,11.01824 h -19.99125 l -1.15915,4.25 c -7.92176,29.04504 -21.2238,46.62479 -45.0095,59.4838 -15.82775,8.55679 -37.99914,11.6137 -56.41163,7.77782 z m 29.75741,-18.96444 c 20.26871,-3.61364 40.03608,-19.15602 48.16725,-37.8722 6.25835,-14.40535 7.15889,-34.10389 2.21734,-48.50267 -16.0242,-46.69169 -75.21481,-60.48888 -110.19868,-25.68707 -46.4435,46.2018 -5.11158,123.63732 59.81409,112.06194 z M 60.50948,-41.18198 c -26.3822,-31.00661 -30.1417,-35.89982 -28.10463,-36.57978 1.65481,-0.55236 1.83208,-61.77279 0.18183,-62.7927 -0.5875,-0.3631 -0.77602,-1.40215 -0.41894,-2.30902 0.8308,-2.10998 2.16781,-10.80005 2.96127,-19.24715 0.67174,-7.15137 -0.83712,-22.68975 -2.64198,-27.20733 -0.83374,-2.08686 -0.82773,-3.09882 0.0235,-3.95 1.4488,-1.4488 1.58875,-40.44537 0.15865,-44.20681 -0.885,-2.32774 -0.80004,-2.49327 0.83158,-1.62005 4.28688,2.29426 14.89024,16.66628 20.53421,27.83249 3.12485,6.1823 2.42261,6.09092 18.02239,2.34528 39.68377,-9.5284 37.19099,-9.24763 38.57899,-4.34528 2.72776,9.63434 5.83918,24.82082 5.21409,25.44927 -0.68947,0.69316 -37.97391,9.4547 -45.73211,10.74667 -6.2436,1.03974 -6.66535,1.563 -5.96461,7.40013 1.87465,15.61551 -7.36555,47.31889 -17.6445,60.53879 -2.93834,3.77903 -2.48798,4.60455 9.51918,17.44876 16.80997,17.98191 37.62645,41.52977 37.62645,42.56358 0,1.20969 -20.45263,20.1028 -21.76217,20.1028 -0.56571,0 -5.68815,-5.47634 -11.3832,-12.16965 z m 263.85487,-127.35365 c -22.56371,-4.92205 -42.49722,-20.65931 -52.41359,-41.37988 -5.5342,-11.5639 -4.32167,-11.07255 -19.05326,-7.72083 -7.60724,1.7308 -10.60165,2.04829 -11.59001,1.22888 -1.29987,-1.07768 -5.54261,-17.46489 -6.40976,-24.7571 -0.50218,-4.22306 -1.45302,-3.74955 13.75712,-6.85081 15.0991,-3.07861 14.82644,-2.86707 17.51826,-13.59174 9.00882,-35.89279 42.02811,-60.31199 78.53848,-58.08262 54.22456,3.31102 88.07693,61.82055 63.71526,110.12377 -15.5759,30.88319 -51.09788,48.22123 -84.0625,41.03033 z m 24.40401,-29.47824 c 30.4409,-5.66005 46.38325,-41.56883 30.49264,-68.68203 -21.60211,-36.8584 -77.45501,-25.71317 -84.64093,16.88976 -5.02506,29.79196 23.86326,57.42334 54.14829,51.79227 z m -202.4407,2.25154 c -0.24487,-0.4125 -1.88156,-6.58035 -3.63708,-13.70633 -3.3744,-13.69729 -3.16911,-15.54367 1.72821,-15.54367 0.75993,0 5.28642,-0.9175 10.05887,-2.03889 8.80603,-2.06916 13.57787,-3.16126 21.67719,-4.96111 9.77331,-2.17185 13.24933,-2.96459 19.42483,-4.43006 4.3666,-1.03621 6.81344,-1.20212 7.63789,-0.51788 1.11649,0.9266 6.11799,20.26792 6.68995,25.87074 0.30285,2.96667 -0.90329,3.36276 -27.75267,9.11381 -10.45,2.23835 -21.72875,4.72081 -25.06389,5.51656 -6.7366,1.60734 -10.09377,1.82468 -10.7633,0.69683 z"
         id="path2558" />
      <path
         style="fill:#545454"
         d="m 66.65485,358.27823 c -8.75811,-3.2203 -11.6596,-17.46884 -6.06833,-29.80012 3.41389,-7.52919 11.7296,-16.82105 17.56149,-19.62297 l 4.00684,-1.92509 -3.5,2.75619 c -13.14448,10.35103 -20.49061,24.71208 -18.09499,35.37418 3.64278,16.21283 18.36778,13.30147 27.63666,-5.46419 8.66825,-17.54964 8.69966,-29.44157 0.0916,-34.6905 -3.52214,-2.1477 -1.43401,-2.69565 2.84422,-0.74635 5.07064,2.31034 6.87774,7.01653 6.13126,15.96752 -1.90956,22.89749 -17.89752,42.82517 -30.60875,38.15133 z m 45.6563,-0.42309 c -6.47146,-3.76178 -6.17701,-17.88916 0.93269,-44.74861 4.15964,-15.71458 14.92438,-41.11886 17.42358,-41.11886 1.35001,0 0.17724,3.42593 -5.99062,17.5 -7.42472,16.94203 -14.02195,42.6119 -14.02195,54.55951 0,14.67703 4.22427,16.15868 18.64232,6.53874 6.14232,-4.09825 6.14232,-4.09825 6.81348,-10.09825 0.79839,-7.13734 3.45747,-16.22725 7.75206,-26.5 6.45143,-15.43193 6.53331,-10.5984 0.14505,8.56195 -8.67619,26.02255 -6.00388,38.81536 6.52906,31.25572 8.00127,-4.82623 13.05308,-9.85662 14.20734,-14.14711 2.75939,-10.25686 7.38036,-22.78691 10.74779,-29.1433 4.41206,-8.32823 7.10151,-10.05251 3.98587,-2.55545 -2.62036,6.30529 -2.2944,6.67054 7.28156,8.15929 9.66105,1.50197 12.6872,0.77072 14.13788,-3.41629 1.44416,-4.16824 10.30706,-21.64505 12.24287,-24.14181 3.15234,-4.06582 2.37375,-0.49942 -1.86164,8.52733 -8.80083,18.75695 -8.77897,18.66156 -4.37364,19.08631 3.57175,0.34438 4.42357,2.10839 1.25,2.5886 -7.25766,1.09819 -7.42017,1.39378 -10.01935,18.22476 -2.95185,19.11459 1.17644,24.04291 11.23228,13.40901 5.91136,-6.25117 7.06967,-5.94314 1.95524,0.51995 -3.72068,4.70182 -8.26585,8.05449 -10.93287,8.06445 -5.26391,0.0197 -7.3558,-13.80676 -4.2353,-27.99341 2.42155,-11.00903 2.62741,-10.62606 -6.06538,-11.28349 -4.38282,-0.33147 -8.60145,-1.25102 -10.02825,-2.1859 -3.30189,-2.16348 -3.68934,-1.77755 -7.23367,7.20547 -4.81491,12.20329 -7.30926,21.87237 -6.97599,27.04168 0.43066,6.67981 2.33936,6.52322 10.20795,-0.83745 7.33668,-6.86311 8.92764,-6.42587 2.39721,0.65881 -8.88629,9.64049 -15.80187,9.57652 -15.80187,-0.14617 0,-3.41026 -1.15126,-3.10997 -7.76371,2.02506 -9.21743,7.15798 -16.04314,6.90581 -18.00499,-0.66519 -1.1125,-4.29328 -2.21233,-4.40938 -6.81055,-0.71895 -7.08587,5.68697 -14.03057,7.94405 -17.76445,5.7736 z m 142.19251,-0.38767 c -3.04091,-1.65183 -6.81,-8.77154 -7.54517,-14.25263 -1.41755,-10.56868 8.30944,-27.19398 19.99896,-34.18208 5.21567,-3.11797 5.68166,-1.99919 0.62647,1.50406 -17.08667,11.84108 -23.38216,35.24821 -11.76894,43.75792 9.72315,7.12474 25.70851,-12.63512 28.30253,-34.98537 0.85015,-7.32494 -0.81503,-11.39505 -5.72959,-14.00447 -2.55061,-1.35427 -2.85329,-1.79749 -1.4339,-2.09972 4.53938,-0.96657 10.70087,6.6951 10.68174,13.28249 -0.0686,23.62628 -19.90704,48.16366 -33.1321,40.9798 z m 34.15119,-1.25563 c 0,-1.07458 3.72414,-12.9026 4.95088,-15.72417 4.94465,-11.37304 13.50763,-29.72483 15.06317,-32.28271 2.06662,-3.39829 4.73825,-4.5249 3.47949,-1.46729 -2.52125,6.12426 -0.99694,6.93062 4.52862,2.39563 5.20314,-4.27038 9.73166,-6.29903 13.29152,-5.95424 5.06002,0.49009 4.81161,4.88807 -1.15783,20.49874 -11.56915,30.25451 -11.05065,34.92339 3.08658,27.79321 5.09745,-2.57093 6.6623,-3.06101 5.25757,-1.64657 -2.80082,2.82019 -11.34489,7.16323 -14.09224,7.16323 -2.74086,0 -5.41567,-3.46177 -5.38743,-6.97251 0.0112,-1.39012 2.51924,-9.72749 5.57348,-18.52749 10.43593,-30.06849 10.03639,-30.73541 -9.66579,-16.13429 -8.57198,6.35262 -8.57198,6.35262 -14.11188,18.74346 -3.04695,6.81495 -6.34381,14.54302 -7.32635,17.17349 -1.65579,4.43284 -3.48979,7.02978 -3.48979,4.94151 z m -63.25,-1.30427 c -5.17671,-3.01516 2.72058,-42.60813 10.66608,-53.47424 2.99082,-4.09019 2.27977,-0.35951 -2.87344,15.07616 -11.10965,33.27729 -9.94509,43.68054 3.45852,30.89566 6.35577,-6.06237 7.70027,-6.33695 3.3958,-0.6935 -5.15164,6.75415 -11.25691,10.17044 -14.64696,8.19592 z M 7.98683,354.0911 c -11.51622,-2.971 -17.85821,-10.86521 -17.75729,-22.10343 0.0672,-7.4777 3.20358,-17 5.59942,-17 0.52462,0 0.061,1.6875 -1.03034,3.75 -4.87808,9.21923 -5.24006,14.46509 -1.47545,21.38193 9.05149,16.63057 33.9286,16.04422 45.79527,-1.07939 6.68511,-9.64662 4.36026,-15.82542 -10.56991,-28.09186 -15.71691,-12.91281 -18.3869,-20.12257 -10.58324,-28.57785 4.05196,-4.39031 11.11054,-6.35489 22.89034,-6.37096 4.78543,-0.007 10.97331,-0.49924 13.75086,-1.09492 5.92521,-1.27073 8.57554,-0.80464 5.32293,0.9361 -1.22106,0.65349 -8.64486,1.87828 -16.49734,2.72175 -20.97789,2.25333 -25.77723,4.77045 -25.77723,13.51946 0,4.59171 3.15102,8.27101 17.66082,20.62165 10.6413,9.0578 12.63442,16.98448 6.7819,26.97174 -6.50083,11.09362 -21.84768,17.57946 -34.11074,14.41578 z m 233.0131,-78.64656 c -0.75454,-1.96628 0.13832,-2.86909 2.09493,-2.11826 0.87889,0.33726 1.27596,1.23798 0.93614,2.12354 -0.75808,1.97552 -2.27198,1.97289 -3.03107,-0.005 z M 142.58788,242.287 c -11.87392,-10.66936 -19.4225,-20.14045 -17.54908,-22.01856 0.42834,-0.42943 8.05469,-0.91355 16.94743,-1.07583 l 16.16862,-0.29506 11.62436,7.86788 c 6.3934,4.32733 15.5059,9.61604 20.25,11.75268 9.3378,4.20554 10.53598,5.46956 5.18466,5.46956 -1.89254,0 -3.7191,0.45 -4.05902,1 -0.33992,0.55 -3.65148,1 -7.35902,1 -3.86633,0 -7.24686,0.50588 -7.92726,1.18628 -0.74145,0.74145 -5.78488,1.32241 -13.45,1.54933 l -12.26372,0.36305 z m -35.32985,-47.54933 c -2.37464,-3.70286 -7.88165,-20.58192 -7.25117,-22.22494 0.88106,-2.29601 5.91274,-1.85973 11.24401,0.97494 6.58008,3.49866 11.69724,2.73662 14.70367,-2.18964 1.40205,-2.29738 2.59588,-1.43337 4.75262,3.43964 1.15626,2.6125 3.41751,7.37631 5.02499,10.58623 3.95341,7.89444 4.15138,7.66377 -6.5773,7.66377 -5.66667,0 -9.5,0.40351 -9.5,1 0,0.55 -1.54844,1 -3.44098,1 -1.89254,0 -3.7191,0.45 -4.05902,1 -1.05202,1.7022 -3.38558,1.10652 -4.89682,-1.25 z m -11.16832,-38.8554 c -1.61585,-2.6145 -0.57812,-32.35179 1.48054,-42.42661 4.99908,-24.46484 16.62178,-47.85882 32.30045,-65.01378 2.63128,-2.87905 4.78415,-5.7292 4.78415,-6.33369 0,-1.10799 -20.32221,-24.08812 -33.75,-38.16413 -3.9875,-4.18 -7.25,-8.31859 -7.25,-9.19688 0,-1.78677 18.80431,-19.75951 20.67375,-19.75951 1.33378,0 7.78381,7.01919 34.74644,37.81249 4.9061,5.60313 9.48405,10.18751 10.17321,10.18751 0.68917,0 4.55008,-1.76987 8.57982,-3.93304 8.986,-4.82371 15.69652,-7.48624 25.46704,-10.10455 9.63577,-2.58219 19.95652,-3.73704 18.95794,-2.1213 -0.39393,0.63739 -1.47718,1.15801 -2.40722,1.15693 -2.54179,-0.003 -1.95091,22.70896 0.60361,23.20092 0.92158,0.17748 -2.91453,1.82604 -8.52468,3.66347 -41.89355,13.72094 -72.84168,52.20854 -75.94281,94.44375 -0.71075,9.67992 -1.55047,11.69382 -4.87585,11.69382 -1.36311,0 -3.37228,0.45 -4.46482,1 -1.09254,0.55 -2.88643,1.45 -3.98643,2 -7.19336,3.59668 -10.59779,6.36162 -12.62069,10.25 -1.51645,2.91489 -2.82276,3.45954 -3.94445,1.6446 z M -155.53253,55.59369 c -3.12805,-1.73109 -5.96734,-3.42741 -6.30953,-3.7696 -0.88479,-0.88479 15.26609,-32.81062 16.91944,-33.44507 1.77704,-0.68191 13.49422,5.22813 14.2452,7.18515 0.58811,1.53258 -16.69904,32.70743 -18.30654,33.01317 -0.47366,0.0901 -3.42051,-1.25256 -6.54857,-2.98365 z M -128.59515,3.4247 c -3.7125,-1.90554 -6.75,-3.95146 -6.75,-4.54651 0,-0.59504 3.15,-6.97177 7,-14.1705 8.30116,-15.52151 8.13973,-14.19698 2.40841,-19.76181 -8.62821,-8.37758 -16.95179,-22.47225 -18.57758,-31.45821 -0.35207,-1.94594 -0.99935,-1.98984 -23.94508,-1.62416 l -23.58322,0.37584 -0.64026,-3.87584 c -1.14767,-6.94749 -0.7833,-14.39217 0.73288,-14.97398 3.66898,-1.40792 38.98374,1.25095 40.04965,3.01536 1.60298,2.6534 23.2353,21.57485 24.73875,21.63859 0.72405,0.0307 3.20646,2.45169 5.51647,5.37998 4.71033,5.97107 13.02265,13.35336 18.29998,16.25247 1.925,1.05751 7.325,5.60179 12,10.0984 4.675,4.49661 9.77859,8.70575 11.34132,9.35364 6.74808,2.79771 -8.36808,2.98713 -20.51306,0.25705 -2.40077,-0.53967 -2.95857,-0.0825 -5.5,4.50744 -14.85269,26.82487 -12.43875,24.7366 -22.57826,19.53224 z M 60.50948,-41.18198 c -26.3822,-31.00661 -30.1417,-35.89982 -28.10463,-36.57978 1.65481,-0.55236 1.83208,-61.77279 0.18183,-62.7927 -0.5875,-0.3631 -0.77602,-1.40215 -0.41894,-2.30902 0.8308,-2.10998 2.16781,-10.80005 2.96127,-19.24715 0.67174,-7.15137 -0.83712,-22.68975 -2.64198,-27.20733 -0.83374,-2.08686 -0.82773,-3.09882 0.0235,-3.95 1.4488,-1.4488 1.58875,-40.44537 0.15865,-44.20681 -0.885,-2.32774 -0.80004,-2.49327 0.83158,-1.62005 4.3056,2.30428 14.89135,16.66877 20.58562,27.93393 3.22065,6.37154 0.043,6.45068 31.41587,-0.78247 23.33419,-5.37981 25.1526,-5.44691 25.1526,-0.92814 0,1.04276 0.88433,5.1959 1.96517,9.22919 1.08084,4.03329 2.09334,9.29476 2.25,11.69216 l 0.28483,4.35891 -13,3.19381 c -7.15,1.7566 -17.5,4.16353 -23,5.34874 -16.20605,3.49229 -15.04434,2.77533 -14.71644,9.08228 0.94434,18.16414 -7.78834,47.79659 -17.92924,60.83894 -2.93834,3.77903 -2.48798,4.60455 9.51918,17.44876 26.80429,28.67291 37.72405,41.6156 36.70989,43.51056 -1.25682,2.3484 -19.57077,19.15582 -20.87284,19.15582 -0.55071,0 -5.66087,-5.47634 -11.35592,-12.16965 z m -327.82283,3.98704 c -0.0204,-1.7229 -0.70012,-2.89473 -1.89992,-3.27553 -1.02746,-0.32611 -2.6722,-1.48143 -3.65498,-2.56739 -0.98278,-1.08596 -2.62869,-1.97447 -3.65757,-1.97447 -1.71711,0 -1.75452,-0.22577 -0.45571,-2.75 6.76759,-13.15275 8.33893,-37.29384 3.3684,-51.75 -12.75204,-37.08763 -50.13144,-55.50368 -88.54956,-43.62651 -1.82465,0.5641 -6.6967,2.84833 -10.82678,5.07607 -8.37685,4.51842 -8.56247,4.58087 -8.14952,2.74196 0.45457,-2.02423 -7.18668,-8.24674 -9.62073,-7.83447 -4.69621,0.79544 4.25122,-6.46261 15.50294,-12.57581 39.61258,-21.52199 92.69281,-4.44984 113.26844,36.43044 3.99991,7.94715 8.63458,22.74757 8.6585,27.65019 0.0292,5.97258 -0.0874,5.94212 21.12628,5.52174 l 19.35841,-0.38361 0.65394,8.5 c 0.35966,4.675 0.27865,8.89602 -0.18004,9.38004 -0.45869,0.48402 -9.73323,0.93402 -20.6101,1 l -19.77611,0.11996 -1.19058,3.5 c -0.65481,1.925 -1.7689,5.525 -2.47575,8 -1.4065,4.92483 -6.8493,16.32755 -9.30783,19.5 -1.51232,1.95148 -1.55069,1.93492 -1.58173,-0.68261 z m 414.08947,-159.99842 c -1.91586,-5.0391 -6.27384,-23.979 -5.80098,-25.21125 0.27329,-0.71219 2.90053,-1.79404 5.83831,-2.40409 2.93777,-0.61005 12.9914,-2.71909 22.3414,-4.68675 9.35,-1.96765 19.25,-3.98722 22,-4.48794 2.75,-0.50071 6.40796,-1.2074 8.12881,-1.57042 3.1288,-0.66004 3.1288,-0.66004 5.82463,11.19072 1.4827,6.51792 2.88554,12.53735 3.11741,13.37652 0.3219,1.16498 -1.29181,1.93195 -6.82463,3.24364 -3.98542,0.94484 -14.89622,3.53361 -24.24622,5.75283 -9.35,2.21921 -19.025,4.44096 -21.5,4.93721 -2.475,0.49625 -5.28125,1.20413 -6.2361,1.57307 -1.25282,0.48407 -1.98846,0.007 -2.64263,-1.71354 z"
         id="path2556" />
      <path
         style="fill:#4e4e4e"
         d="m 66.65485,358.27823 c -8.75811,-3.2203 -11.6596,-17.46884 -6.06833,-29.80012 3.41389,-7.52919 11.7296,-16.82105 17.56149,-19.62297 l 4.00684,-1.92509 -3.5,2.75619 c -13.14448,10.35103 -20.49061,24.71208 -18.09499,35.37418 3.64278,16.21283 18.36778,13.30147 27.63666,-5.46419 8.66825,-17.54964 8.69966,-29.44157 0.0916,-34.6905 -3.52214,-2.1477 -1.43401,-2.69565 2.84422,-0.74635 5.07064,2.31034 6.87774,7.01653 6.13126,15.96752 -1.90956,22.89749 -17.89752,42.82517 -30.60875,38.15133 z m 45.6563,-0.42309 c -6.47146,-3.76178 -6.17701,-17.88916 0.93269,-44.74861 4.15964,-15.71458 14.92438,-41.11886 17.42358,-41.11886 1.35001,0 0.17724,3.42593 -5.99062,17.5 -7.42472,16.94203 -14.02195,42.6119 -14.02195,54.55951 0,14.67703 4.22427,16.15868 18.64232,6.53874 6.14232,-4.09825 6.14232,-4.09825 6.81348,-10.09825 0.79839,-7.13734 3.45747,-16.22725 7.75206,-26.5 6.45143,-15.43193 6.53331,-10.5984 0.14505,8.56195 -8.67619,26.02255 -6.00388,38.81536 6.52906,31.25572 8.00127,-4.82623 13.05308,-9.85662 14.20734,-14.14711 2.75939,-10.25686 7.38036,-22.78691 10.74779,-29.1433 4.41206,-8.32823 7.10151,-10.05251 3.98587,-2.55545 -2.62036,6.30529 -2.2944,6.67054 7.28156,8.15929 9.66105,1.50197 12.6872,0.77072 14.13788,-3.41629 1.44416,-4.16824 10.30706,-21.64505 12.24287,-24.14181 3.15234,-4.06582 2.37375,-0.49942 -1.86164,8.52733 -8.80083,18.75695 -8.77897,18.66156 -4.37364,19.08631 3.57175,0.34438 4.42357,2.10839 1.25,2.5886 -7.25766,1.09819 -7.42017,1.39378 -10.01935,18.22476 -2.95185,19.11459 1.17644,24.04291 11.23228,13.40901 5.91136,-6.25117 7.06967,-5.94314 1.95524,0.51995 -3.72068,4.70182 -8.26585,8.05449 -10.93287,8.06445 -5.26391,0.0197 -7.3558,-13.80676 -4.2353,-27.99341 2.42155,-11.00903 2.62741,-10.62606 -6.06538,-11.28349 -4.38282,-0.33147 -8.60145,-1.25102 -10.02825,-2.1859 -3.30189,-2.16348 -3.68934,-1.77755 -7.23367,7.20547 -4.81491,12.20329 -7.30926,21.87237 -6.97599,27.04168 0.43066,6.67981 2.33936,6.52322 10.20795,-0.83745 7.33668,-6.86311 8.92764,-6.42587 2.39721,0.65881 -8.88629,9.64049 -15.80187,9.57652 -15.80187,-0.14617 0,-3.41026 -1.15126,-3.10997 -7.76371,2.02506 -9.21743,7.15798 -16.04314,6.90581 -18.00499,-0.66519 -1.1125,-4.29328 -2.21233,-4.40938 -6.81055,-0.71895 -7.08587,5.68697 -14.03057,7.94405 -17.76445,5.7736 z m 142.19251,-0.38767 c -3.04091,-1.65183 -6.81,-8.77154 -7.54517,-14.25263 -1.41755,-10.56868 8.30944,-27.19398 19.99896,-34.18208 5.21567,-3.11797 5.68166,-1.99919 0.62647,1.50406 -17.08667,11.84108 -23.38216,35.24821 -11.76894,43.75792 9.72315,7.12474 25.70851,-12.63512 28.30253,-34.98537 0.85015,-7.32494 -0.81503,-11.39505 -5.72959,-14.00447 -2.55061,-1.35427 -2.85329,-1.79749 -1.4339,-2.09972 4.53938,-0.96657 10.70087,6.6951 10.68174,13.28249 -0.0686,23.62628 -19.90704,48.16366 -33.1321,40.9798 z m 34.15119,-1.25563 c 0,-1.07458 3.72414,-12.9026 4.95088,-15.72417 4.94465,-11.37304 13.50763,-29.72483 15.06317,-32.28271 2.06662,-3.39829 4.73825,-4.5249 3.47949,-1.46729 -2.52125,6.12426 -0.99694,6.93062 4.52862,2.39563 5.20314,-4.27038 9.73166,-6.29903 13.29152,-5.95424 5.06002,0.49009 4.81161,4.88807 -1.15783,20.49874 -11.56915,30.25451 -11.05065,34.92339 3.08658,27.79321 5.09745,-2.57093 6.6623,-3.06101 5.25757,-1.64657 -2.80082,2.82019 -11.34489,7.16323 -14.09224,7.16323 -2.74086,0 -5.41567,-3.46177 -5.38743,-6.97251 0.0112,-1.39012 2.51924,-9.72749 5.57348,-18.52749 10.43593,-30.06849 10.03639,-30.73541 -9.66579,-16.13429 -8.57198,6.35262 -8.57198,6.35262 -14.11188,18.74346 -3.04695,6.81495 -6.34381,14.54302 -7.32635,17.17349 -1.65579,4.43284 -3.48979,7.02978 -3.48979,4.94151 z m -63.25,-1.30427 c -5.17671,-3.01516 2.72058,-42.60813 10.66608,-53.47424 2.99082,-4.09019 2.27977,-0.35951 -2.87344,15.07616 -11.10965,33.27729 -9.94509,43.68054 3.45852,30.89566 6.35577,-6.06237 7.70027,-6.33695 3.3958,-0.6935 -5.15164,6.75415 -11.25691,10.17044 -14.64696,8.19592 z M 7.98683,354.0911 c -11.51622,-2.971 -17.85821,-10.86521 -17.75729,-22.10343 0.0672,-7.4777 3.20358,-17 5.59942,-17 0.52462,0 0.061,1.6875 -1.03034,3.75 -4.87808,9.21923 -5.24006,14.46509 -1.47545,21.38193 9.05149,16.63057 33.9286,16.04422 45.79527,-1.07939 6.68511,-9.64662 4.36026,-15.82542 -10.56991,-28.09186 -15.71691,-12.91281 -18.3869,-20.12257 -10.58324,-28.57785 4.05196,-4.39031 11.11054,-6.35489 22.89034,-6.37096 4.78543,-0.007 10.97331,-0.49924 13.75086,-1.09492 5.92521,-1.27073 8.57554,-0.80464 5.32293,0.9361 -1.22106,0.65349 -8.64486,1.87828 -16.49734,2.72175 -20.97789,2.25333 -25.77723,4.77045 -25.77723,13.51946 0,4.59171 3.15102,8.27101 17.66082,20.62165 10.6413,9.0578 12.63442,16.98448 6.7819,26.97174 -6.50083,11.09362 -21.84768,17.57946 -34.11074,14.41578 z m 233.0131,-78.64656 c -0.75454,-1.96628 0.13832,-2.86909 2.09493,-2.11826 0.87889,0.33726 1.27596,1.23798 0.93614,2.12354 -0.75808,1.97552 -2.27198,1.97289 -3.03107,-0.005 z M 142.55499,242.287 c -6.81779,-6.09964 -15.90014,-15.72658 -15.90014,-16.85354 0,-0.23792 2.05947,1.13945 4.5766,3.06082 2.51712,1.92136 4.99212,3.49339 5.5,3.49339 1.57815,0 1.01525,-5.39696 -0.9688,-9.28856 l -1.8922,-3.71144 12.1422,0.003 12.1422,0.003 11.62436,7.81944 c 6.3934,4.3007 15.5059,9.56761 20.25,11.70425 9.3378,4.20554 10.53598,5.46956 5.18466,5.46956 -1.89254,0 -3.7191,0.45 -4.05902,1 -0.33992,0.55 -3.65148,1 -7.35902,1 -3.86633,0 -7.24686,0.50588 -7.92726,1.18628 -0.74145,0.74145 -5.78488,1.32241 -13.45,1.54933 l -12.26372,0.36305 -7.59986,-6.79933 z m -34.2623,-45.99483 c -0.38253,-0.38252 1.45497,-1.26266 4.08333,-1.95586 5.91115,-1.55901 7.27883,-1.62452 7.27883,-0.34864 0,0.55 -1.54844,1 -3.44098,1 -1.89254,0 -3.7191,0.45 -4.05902,1 -0.71287,1.15345 -2.8451,1.32157 -3.86216,0.3045 z m 13.36216,-4.3045 c 0.825,-0.53316 4.0125,-0.97627 7.08333,-0.98469 6.92921,-0.019 7.12013,-0.21854 4.80119,-5.01819 -1.03649,-2.14528 -1.88452,-4.62683 -1.88452,-5.51456 0,-0.88772 -0.46583,-2.48446 -1.03518,-3.5483 -0.71358,-1.33333 -0.71358,-1.93426 0,-1.93426 0.56935,0 1.0436,0.5625 1.05389,1.25 0.0103,0.6875 1.58528,4.34168 3.5,8.12039 4.57416,9.0272 4.83891,8.63186 -5.76871,8.6143 -6.34159,-0.0105 -8.77837,-0.32011 -7.75,-0.98469 z m -21.34522,-20.25 c 0.63596,-1.0296 7.10339,-0.9503 7.74944,0.095 0.28724,0.46476 -1.44311,0.80226 -3.84522,0.75 -2.40211,-0.0523 -4.15901,-0.43252 -3.90422,-0.84502 z m -0.44998,-19 c 4.2132,-5.16954 11.10853,-9.98932 17.51995,-12.24631 2.62639,-0.92455 5.5896,-2.11169 6.58491,-2.63808 1.59314,-0.84256 1.67866,-0.71231 0.71481,1.08866 -0.65088,1.21618 -2.09983,2.04573 -3.57322,2.04573 -1.36311,0 -3.37228,0.45 -4.46482,1 -1.09254,0.55 -2.88643,1.45 -3.98643,2 -7.19336,3.59668 -10.59779,6.36162 -12.62069,10.25 -0.78687,1.5125 -1.92738,2.75 -2.53447,2.75 -0.6071,0 0.45489,-1.9125 2.35996,-4.25 z m 25.87415,-28.33333 c 0.048,-1.16495 0.28494,-1.4019 0.60416,-0.60417 0.28887,0.72187 0.25335,1.58438 -0.0789,1.91667 -0.33229,0.33229 -0.56864,-0.25834 -0.52522,-1.3125 z m 2,-11 c 0.048,-1.16495 0.28494,-1.4019 0.60416,-0.60417 0.28887,0.72187 0.25335,1.58438 -0.0789,1.91667 -0.33229,0.33229 -0.56864,-0.25834 -0.52522,-1.3125 z m 0.93636,-5.60765 c -0.008,-0.93004 0.43469,-1.9691 0.98469,-2.30902 1.2656,-0.78218 1.2656,0.54163 0,2.5 -0.8354,1.29269 -0.97149,1.26629 -0.98469,-0.19098 z m 2.05237,-5.04457 c -0.0372,-0.95456 1.50398,-6.35456 3.42489,-12 3.47306,-10.20712 3.49261,-10.36386 3.5,-28.06249 l 0.007,-17.79804 -4.25,2.87786 c -6.96834,4.71857 -7.46461,4.73095 -3,0.0748 5.35231,-5.58189 5.33473,-5.80421 -1,-12.64925 -5.13836,-5.55229 -4.55388,-5.54709 2.0348,0.0181 5.66422,4.78435 6.21935,4.11321 6.1834,-7.47546 -0.0218,-7.0189 -0.45756,-10.81121 -1.38242,-12.03032 -0.9392,-1.23802 -1.20276,-3.67488 -0.86525,-8 0.45967,-5.89045 0.30302,-6.45788 -2.95932,-10.71968 -4.01046,-5.23912 -6.98654,-10.50784 -4.51886,-8 1.86834,1.89875 9.74274,10.75277 21.17784,23.81249 4.9061,5.60313 9.48405,10.18751 10.17321,10.18751 0.68917,0 4.55008,-1.76987 8.57982,-3.93304 8.986,-4.82371 15.69652,-7.48624 25.46704,-10.10455 9.63577,-2.58219 19.95652,-3.73704 18.95794,-2.1213 -0.39393,0.63739 -1.47718,1.15801 -2.40722,1.15693 -2.54179,-0.003 -1.95091,22.70896 0.60361,23.20092 0.92158,0.17748 -2.91453,1.82604 -8.52468,3.66347 -32.00335,10.48171 -56.36688,33.81431 -70.10396,67.13757 -0.72044,1.74765 -1.05096,1.9777 -1.09827,0.76445 z M -155.53253,55.59369 c -3.12805,-1.73109 -5.96734,-3.42741 -6.30953,-3.7696 -0.88479,-0.88479 15.26609,-32.81062 16.91944,-33.44507 1.77704,-0.68191 13.49422,5.22813 14.2452,7.18515 0.58811,1.53258 -16.69904,32.70743 -18.30654,33.01317 -0.47366,0.0901 -3.42051,-1.25256 -6.54857,-2.98365 z m 279.68738,-0.60602 c 0.33992,-0.55 0.84303,-1 1.11803,-1 0.275,0 0.22189,0.45 -0.11803,1 -0.33992,0.55 -0.84303,1 -1.11803,1 -0.275,0 -0.22189,-0.45 0.11803,-1 z m -0.5,-26.5 c 0,-0.275 0.225,-0.5 0.5,-0.5 0.275,0 0.5,0.225 0.5,0.5 0,0.275 -0.225,0.5 -0.5,0.5 -0.275,0 -0.5,-0.225 -0.5,-0.5 z m -2,-2 c 0,-0.275 0.225,-0.5 0.5,-0.5 0.275,0 0.5,0.225 0.5,0.5 0,0.275 -0.225,0.5 -0.5,0.5 -0.275,0 -0.5,-0.225 -0.5,-0.5 z m -388.9682,-63.68261 c -0.0204,-1.7229 -0.70012,-2.89473 -1.89992,-3.27553 -1.02746,-0.32611 -2.6722,-1.48143 -3.65498,-2.56739 -0.98278,-1.08596 -2.62869,-1.97447 -3.65757,-1.97447 -1.71711,0 -1.75452,-0.22577 -0.45571,-2.75 10.16197,-19.74968 7.89659,-50.81457 -5.04999,-69.25 l -2.45794,-3.5 3.14394,3.5 c 1.72916,1.925 4.99273,6.65 7.25237,10.5 2.25964,3.85 5.26484,8.04674 6.67822,9.32609 1.41338,1.27935 4.23768,3.86685 6.27622,5.75 4.46841,4.1278 4.55884,4.13807 5.93751,0.67391 1.1232,-2.82226 1.24816,-2.71302 2.28763,2 0.52714,2.39006 1.09485,2.75524 4.33747,2.79004 3.73095,0.04 3.73095,0.04 0.98095,1.53193 -3.65112,1.98077 -3.57556,2.14989 3.51906,7.87635 5.65594,4.56522 11.55196,7.0792 18.19887,7.75973 1.11764,0.11443 -4.47522,0.45193 -12.42857,0.75 l -14.46064,0.54195 -1.18609,3.5 c -0.65235,1.925 -1.76442,5.525 -2.47127,8 -1.4065,4.92483 -6.8493,16.32755 -9.30783,19.5 -1.51232,1.95148 -1.55069,1.93492 -1.58173,-0.68261 z m 11.9682,-62.31739 c 0,-0.275 0.225,-0.5 0.5,-0.5 0.275,0 0.5,0.225 0.5,0.5 0,0.275 -0.225,0.5 -0.5,0.5 -0.275,0 -0.5,-0.225 -0.5,-0.5 z m -32,-24 c 0,-0.275 0.225,-0.5 0.5,-0.5 0.275,0 0.5,0.225 0.5,0.5 0,0.275 -0.225,0.5 -0.5,0.5 -0.275,0 -0.5,-0.225 -0.5,-0.5 z m -3,-3 c 0,-0.275 0.225,-0.5 0.5,-0.5 0.275,0 0.5,0.225 0.5,0.5 0,0.275 -0.225,0.5 -0.5,0.5 -0.275,0 -0.5,-0.225 -0.5,-0.5 z m -8.12756,-7.25 c -1.24387,-1.58606 -1.2085,-1.62143 0.37756,-0.37756 0.9625,0.75485 1.75,1.54235 1.75,1.75 0,0.82304 -0.82119,0.29331 -2.12756,-1.37244 z m -82.66628,-1.55848 c 0.45457,-2.02423 -7.18668,-8.24674 -9.62073,-7.83447 -4.69621,0.79544 4.25122,-6.46261 15.50294,-12.57581 10.74834,-5.8397 24.56722,-9.3717 35.99354,-9.19967 5.41809,0.0816 5.41809,0.0816 2.16809,1.50287 -1.7875,0.78171 -3.25,1.83273 -3.25,2.33559 0,1.24119 11.20901,11.04809 12.64793,11.06583 0.63136,0.008 3.10636,1.13372 5.5,2.50209 2.39364,1.36838 5.29483,2.49338 6.44708,2.5 1.15226,0.007 2.95226,0.98835 4,2.18162 1.87942,2.14044 1.87814,2.15835 -0.095,1.3342 -19.71604,-8.23498 -41.79579,-6.99067 -61.14432,3.44579 -8.37685,4.51842 -8.56247,4.58087 -8.14952,2.74196 z m 79.79384,-0.19152 c 0,-0.275 0.225,-0.5 0.5,-0.5 0.275,0 0.5,0.225 0.5,0.5 0,0.275 -0.225,0.5 -0.5,0.5 -0.275,0 -0.5,-0.225 -0.5,-0.5 z m -3,-2 c 0,-0.275 0.225,-0.5 0.5,-0.5 0.275,0 0.5,0.225 0.5,0.5 0,0.275 -0.225,0.5 -0.5,0.5 -0.275,0 -0.5,-0.225 -0.5,-0.5 z m -2,-1 c 0,-0.275 0.225,-0.5 0.5,-0.5 0.275,0 0.5,0.225 0.5,0.5 0,0.275 -0.225,0.5 -0.5,0.5 -0.275,0 -0.5,-0.225 -0.5,-0.5 z m -3,-2 c 0,-0.275 0.225,-0.5 0.5,-0.5 0.275,0 0.5,0.225 0.5,0.5 0,0.275 -0.225,0.5 -0.5,0.5 -0.275,0 -0.5,-0.225 -0.5,-0.5 z m 456.12127,-56.68103 c -1.91586,-5.0391 -6.27384,-23.979 -5.80098,-25.21125 0.27329,-0.71219 2.90053,-1.79404 5.83831,-2.40409 2.93777,-0.61005 12.9914,-2.71909 22.3414,-4.68675 9.35,-1.96765 19.25,-3.98722 22,-4.48794 2.75,-0.50071 6.40796,-1.2074 8.12881,-1.57042 3.1288,-0.66004 3.1288,-0.66004 5.82463,11.19072 1.4827,6.51792 2.88554,12.53735 3.11741,13.37652 0.3219,1.16498 -1.29181,1.93195 -6.82463,3.24364 -3.98542,0.94484 -14.89622,3.53361 -24.24622,5.75283 -9.35,2.21921 -19.025,4.44096 -21.5,4.93721 -2.475,0.49625 -5.28125,1.20413 -6.2361,1.57307 -1.25282,0.48407 -1.98846,0.007 -2.64263,-1.71354 z"
         id="path2554" />
    </g>
  </g>
</svg>
